# xmcd
#
# Track frame offsets: 
#        150
#        20101
#        40458
#        55373
#        76455
#        97429
#        113021
#        129253
#        144388
#        159617
#        176544
#
# Disc length: 2517 seconds
#
# Revision: 6
# Processed by: cddbd v1.4PL0 Copyright (c) Steve Scherf et al.
# Submitted via: ExactAudioCopy v0.90b4
#
DISCID=9909d30b
DTITLE=Element of Crime - die schönen Rosen
DYEAR=1900
DGENRE=
TTITLE0=nur so
TTITLE1=wenn der Morgen graut
TTITLE2=die schönen Rosen
TTITLE3=mit Dir allein
TTITLE4=Abendbrot
TTITLE5=ohne Dich
TTITLE6=Tumbling Tumbleweed
TTITLE7=nichts mehr wie es war
TTITLE8=wer ich wirklich bin
TTITLE9=über Nacht
TTITLE10=Ulrikes Lied
EXTD=
EXTT0=
EXTT1=
EXTT2=
EXTT3=
EXTT4=
EXTT5=
EXTT6=
EXTT7=
EXTT8=
EXTT9=
EXTT10=
PLAYORDER=
